<svg xmlns="http://www.w3.org/2000/svg" viewBox="0 0 116 38" fill="none">
  <defs>
    <linearGradient id="g" x1="0" y1="0" x2="0" y2="1"><stop stop-color="#d7a66f"/><stop offset=".45" stop-color="#98623d"/><stop offset="1" stop-color="#4e3020"/></linearGradient>
    <radialGradient id="p" cx="32%" cy="22%" r="82%"><stop stop-color="#fff7de"/><stop offset=".42" stop-color="#dce6dc"/><stop offset=".68" stop-color="#e6ccb9"/><stop offset="1" stop-color="#987558"/></radialGradient>
  </defs>
  <path d="M58 36C49 25 49 14 58 2c9 12 9 23 0 34Z" fill="url(#g)" stroke="#c18c58" stroke-width=".9"/>
  <path d="M54 34C40 29 29 22 22 11c14 2 24 10 32 23ZM62 34c14-5 25-12 32-23-14 2-24 10-32 23Z" fill="url(#g)" stroke="#b97e50" stroke-width=".9"/>
  <path d="M37 28C27 25 20 20 16 13c10 1 17 6 21 15ZM79 28c10-3 17-8 21-15-10 1-17 6-21 15Z" fill="#7b4e33" stroke="#a9754d" stroke-width=".7"/>
  <path d="M3 34c20 1 34-2 51-11M113 34c-20 1-34-2-51-11" stroke="#8d5937" stroke-width="1.35" stroke-linecap="round"/>
  <circle cx="58" cy="22" r="3.7" fill="url(#p)" stroke="#d9bb8d" stroke-width=".9"/>
  <path d="M11 32c5-1 9-1 13 0M105 32c-5-1-9-1-13 0" stroke="#61402b" stroke-width=".9" stroke-linecap="round"/>
</svg>